#N canvas 605 58 548 627 10;
#X obj 235 365 *~;
#X obj 311 365 *~;
#X obj 268 277 vsl 15 60 0 1 0 0 empty drumVolume empty 0 -9 0 10 #fcfcfc #000000 #000000 0 1;
#X obj 374 277 vsl 15 60 0 1 0 0 empty bassVolume empty 0 -9 0 10 #fcfcfc #000000 #000000 0 1;
#N canvas 811 63 718 634 looperDrum 0;
#N canvas 0 50 450 250 (subpatch) 0;
#X array chDrumL 705306 float 2;
#X coords 0 1 705306 -1 200 140 1 0 0;
#X restore 502 174 graph;
#N canvas 0 50 450 250 (subpatch) 0;
#X array chDrumR 705306 float 2;
#X coords 0 1 705306 -1 200 140 1 0 0;
#X restore 504 341 graph;
#X obj 169 85 soundfiler;
#X floatatom 192 120 12 0 0 0 - - - 0;
#X obj 169 171 expr 44100 / $f1;
#X floatatom 193 253 12 0 0 0 - - - 0;
#X obj 169 278 phasor~;
#X obj 170 344 *~;
#X obj 309 386 snapshot~;
#X obj 309 354 metro 50;
#X obj 309 317 tgl 15 0 empty empty empty 17 7 0 10 #fcfcfc #000000 #000000 0 1;
#X obj 309 444 /;
#X floatatom 309 413 12 0 0 0 - - - 0;
#X floatatom 309 482 5 0 0 0 - - - 0;
#X obj 508 495 hsl 195 15 0 1 0 0 drumProgress empty empty -2 -8 0 10 #fcfcfc #000000 #000000 0 1;
#X msg 334 264 0;
#X msg 33 264 0;
#X obj 6 160 t b b;
#X obj 6 125 bng 15 250 50 0 empty empty empty 17 7 0 10 #fcfcfc #000000 #000000;
#X obj 169 7 inlet;
#X obj 169 604 outlet~;
#X obj 309 606 outlet~;
#X obj 192 146 s sampleSizeDrum;
#X obj 205 315 r sampleSizeDrum;
#X obj 390 430 r sampleSizeDrum;
#X obj 59 145 r stopDrum;
#X obj 308 513 tabread4~ chDrumR;
#X obj 170 514 tabread4~ chDrumL;
#X msg 169 48 read -resize \$1 chDrumL chDrumR;
#X connect 2 0 3 0;
#X connect 2 0 4 0;
#X connect 3 0 22 0;
#X connect 4 0 5 0;
#X connect 4 0 6 0;
#X connect 6 0 7 0;
#X connect 7 0 8 0;
#X connect 7 0 26 0;
#X connect 7 0 27 0;
#X connect 8 0 12 0;
#X connect 9 0 8 0;
#X connect 10 0 9 0;
#X connect 11 0 13 0;
#X connect 12 0 11 0;
#X connect 13 0 14 0;
#X connect 15 0 6 1;
#X connect 16 0 6 0;
#X connect 17 0 15 0;
#X connect 17 1 16 0;
#X connect 18 0 17 0;
#X connect 19 0 28 0;
#X connect 23 0 7 1;
#X connect 24 0 11 1;
#X connect 25 0 17 0;
#X connect 26 0 21 0;
#X connect 27 0 20 0;
#X connect 28 0 2 0;
#X restore 235 235 pd looperDrum;
#N canvas 1055 62 724 627 looperBass 0;
#N canvas 0 50 450 250 (subpatch) 0;
#X array chBassL 705306 float 2;
#X coords 0 1 705306 -1 200 140 1 0 0;
#X restore 504 171 graph;
#N canvas 0 50 450 250 (subpatch) 0;
#X array chBassR 705306 float 2;
#X coords 0 1 705306 -1 200 140 1 0 0;
#X restore 506 338 graph;
#X obj 171 82 soundfiler;
#X floatatom 194 117 12 0 0 0 - - - 0;
#X obj 171 168 expr 44100 / $f1;
#X floatatom 195 250 12 0 0 0 - - - 0;
#X obj 171 275 phasor~;
#X obj 172 341 *~;
#X obj 311 383 snapshot~;
#X obj 311 351 metro 50;
#X obj 311 314 tgl 15 0 empty empty empty 17 7 0 10 #fcfcfc #000000 #000000 0 1;
#X obj 311 441 /;
#X floatatom 311 410 12 0 0 0 - - - 0;
#X floatatom 311 479 5 0 0 0 - - - 0;
#X obj 510 492 hsl 195 15 0 1 0 0 bassProgress empty empty -2 -8 0 10 #fcfcfc #000000 #000000 0 1;
#X msg 336 261 0;
#X msg 35 261 0;
#X obj 8 157 t b b;
#X obj 8 122 bng 15 250 50 0 empty empty empty 17 7 0 10 #fcfcfc #000000 #000000;
#X obj 171 4 inlet;
#X obj 171 601 outlet~;
#X obj 311 603 outlet~;
#X obj 172 511 tabread4~ chBassL;
#X obj 310 510 tabread4~ chBassR;
#X msg 171 45 read -resize \$1 chBassL chBassR;
#X obj 194 143 s sampleSizeBass;
#X obj 392 427 r sampleSizeBass;
#X obj 207 312 r sampleSizeBass;
#X obj 61 142 r stopBass;
#X connect 2 0 3 0;
#X connect 2 0 4 0;
#X connect 3 0 25 0;
#X connect 4 0 5 0;
#X connect 4 0 6 0;
#X connect 6 0 7 0;
#X connect 7 0 8 0;
#X connect 7 0 22 0;
#X connect 7 0 23 0;
#X connect 8 0 12 0;
#X connect 9 0 8 0;
#X connect 10 0 9 0;
#X connect 11 0 13 0;
#X connect 12 0 11 0;
#X connect 13 0 14 0;
#X connect 15 0 6 1;
#X connect 16 0 6 0;
#X connect 17 0 15 0;
#X connect 17 1 16 0;
#X connect 18 0 17 0;
#X connect 19 0 24 0;
#X connect 22 0 20 0;
#X connect 23 0 21 0;
#X connect 24 0 2 0;
#X connect 26 0 11 1;
#X connect 27 0 7 1;
#X connect 28 0 17 0;
#X restore 342 235 pd looperBass;
#X obj 293 453 dac~ 1 2;
#X obj 91 176 bng 15 250 50 0 empty empty empty 17 7 0 10 #fcfcfc #000000 #000000;
#X obj 91 205 s stopDrum;
#X obj 91 234 bng 15 250 50 0 empty empty empty 17 7 0 10 #fcfcfc #000000 #000000;
#X obj 91 263 s stopBass;
#X obj 17 192 bng 15 250 50 0 empty bangStop empty 17 7 0 10 #fcfcfc #000000 #000000;
#X text 423 276 bass;
#X text 200 276 drum;
#X obj 235 88 t b b;
#X obj 235 59 bng 15 250 50 0 empty bangStart empty 17 7 0 10 #fcfcfc #000000 #000000;
#X obj 343 365 *~;
#X obj 416 364 *~;
#X obj 171 420 env~;
#X obj 259 522 vu 15 120 empty empty -1 -8 0 10 #404040 #000000 1 0;
#X obj 144 462 - 100;
#X obj 144 510 s vuDrum;
#X obj 20 71 tgl 15 0 empty dspToggle empty 17 7 0 10 #fcfcfc #000000 #000000 0 1;
#X msg 20 99 \; pd dsp \$1;
#X obj 106 378 tgl 15 0 empty vuToggle empty 17 7 0 10 #fcfcfc #000000 #000000 0 1;
#X obj 383 523 vu 15 120 empty empty -1 -8 0 10 #404040 #000000 1 0;
#X obj 492 415 env~;
#X obj 465 507 - 100;
#X obj 465 552 s vuBass;
#X obj 106 421 metro 50;
#X msg 235 151 open drum.wav;
#X msg 342 199 open bass.wav;
#X obj 20 4 loadbang;
#X obj 20 47 s dspToggle;
#X obj 100 47 s vuToggle;
#X msg 20 26 0;
#X connect 0 0 6 0;
#X connect 0 0 18 0;
#X connect 1 0 6 1;
#X connect 1 0 18 0;
#X connect 2 0 0 1;
#X connect 2 0 1 1;
#X connect 3 0 16 1;
#X connect 3 0 17 1;
#X connect 4 0 0 0;
#X connect 4 1 1 0;
#X connect 5 0 16 0;
#X connect 5 1 17 0;
#X connect 7 0 8 0;
#X connect 9 0 10 0;
#X connect 11 0 8 0;
#X connect 11 0 10 0;
#X connect 14 0 30 0;
#X connect 14 0 31 0;
#X connect 14 1 11 0;
#X connect 15 0 14 0;
#X connect 16 0 6 0;
#X connect 16 0 26 0;
#X connect 17 0 6 1;
#X connect 17 0 26 0;
#X connect 18 0 20 1;
#X connect 20 0 19 0;
#X connect 20 0 21 0;
#X connect 22 0 23 0;
#X connect 24 0 29 0;
#X connect 26 0 27 1;
#X connect 27 0 28 0;
#X connect 27 0 25 0;
#X connect 29 0 20 0;
#X connect 29 0 27 0;
#X connect 30 0 4 0;
#X connect 31 0 5 0;
#X connect 32 0 35 0;
#X connect 35 0 33 0;
#X connect 35 0 34 0;
